<?xml version="1.0" encoding="utf-8"?>
<!-- Generator: Adobe Illustrator 17.0.0, SVG Export Plug-In . SVG Version: 6.00 Build 0)  -->
<!DOCTYPE svg PUBLIC "-//W3C//DTD SVG 1.1//EN" "http://www.w3.org/Graphics/SVG/1.1/DTD/svg11.dtd">
<svg version="1.1" id="Слой_1" xmlns="http://www.w3.org/2000/svg" xmlns:xlink="http://www.w3.org/1999/xlink" x="0px" y="0px"
	 width="130.815px" height="128.783px" viewBox="880.237 434.898 130.815 128.783"
	 enable-background="new 880.237 434.898 130.815 128.783" xml:space="preserve">
<path fill="#999999" d="M1009.541,503.955h-16.135v54.563c0,2.852-2.311,5.163-5.163,5.163h-85.198c-2.85,0-5.163-2.311-5.163-5.163
	v-54.563H881.75c-2.016-2.016-2.019-5.285,0-7.301l60.245-60.245c2.016-2.016,5.285-2.016,7.301,0l60.245,60.245
	C1011.557,498.67,1011.557,501.939,1009.541,503.955z M973.37,508.631c-1.299-14.172-13.214-25.273-27.727-25.273
	s-26.425,11.1-27.727,25.273c-0.078,0.269-0.132,0.547-0.132,0.842v36.84c0,1.663,1.346,3.012,3.01,3.012h49.7
	c1.664,0,3.013-1.349,3.013-3.012v-36.84C973.507,509.179,973.449,508.9,973.37,508.631z"/>
</svg>
