<?xml version="1.0" encoding="utf-8"?>
<!-- Generator: Adobe Illustrator 17.0.0, SVG Export Plug-In . SVG Version: 6.00 Build 0)  -->
<!DOCTYPE svg PUBLIC "-//W3C//DTD SVG 1.1//EN" "http://www.w3.org/Graphics/SVG/1.1/DTD/svg11.dtd">
<svg version="1.1" id="Слой_1" xmlns="http://www.w3.org/2000/svg" xmlns:xlink="http://www.w3.org/1999/xlink" x="0px" y="0px"
	 width="821.007px" height="820.965px" viewBox="1 0 821.007 820.965" enable-background="new 1 0 821.007 820.965"
	 xml:space="preserve">
<path d="M822.007,410.529c0,226.692-183.778,410.436-410.512,410.436C184.786,820.965,1,637.213,1,410.529
	C1,183.752,184.778,0,411.495,0C638.229,0.009,822.007,183.752,822.007,410.529L822.007,410.529z M204.027,316.714
	c-8.719-0.221-17.302,1.88-24.957,6.031c-9.323,5.112-17.438,12.104-23.826,20.568c-6.66,8.804-11.798,18.68-15.184,29.142
	c-3.904,12.113-6.039,24.719-6.354,37.394c-0.289,12.657,1.242,25.315,4.576,37.606c2.892,10.616,7.554,20.738,13.772,29.823
	c5.997,8.804,13.78,16.196,22.848,21.699c7.443,4.483,15.907,6.992,24.626,7.213c8.702,0.179,17.31-1.88,24.923-6.065
	c9.323-5.053,17.446-12.113,23.843-20.568c6.643-8.804,11.79-18.637,15.167-29.159c3.921-12.045,6.048-24.651,6.363-37.334
	c0.281-12.725-1.242-25.383-4.568-37.589c-2.909-10.692-7.562-20.738-13.789-29.9c-5.997-8.744-13.772-16.128-22.831-21.657
	C221.201,319.385,212.712,316.884,204.027,316.714z M329.818,335.462c7.962-0.672,15.541-3.743,21.742-8.744
	c8.489-6.882,15.396-15.515,20.279-25.289c5.138-10.284,8.719-21.3,10.565-32.732c2.254-13.746,2.782-27.73,1.565-41.587
	c-1.216-13.857-4.143-27.492-8.71-40.685c-3.802-10.845-9.238-21.138-16.119-30.401c-6.499-8.736-14.801-16.017-24.336-21.359
	c-6.992-3.862-14.954-5.572-22.924-4.823c-7.962,0.68-15.515,3.734-21.716,8.736c-8.489,6.89-15.396,15.447-20.279,25.238
	c-5.163,10.344-8.71,21.359-10.599,32.724c-2.237,13.746-2.748,27.739-1.531,41.596c1.191,13.874,4.143,27.552,8.71,40.685
	c3.802,10.905,9.238,21.13,16.119,30.461c6.482,8.744,14.801,16.026,24.336,21.308C313.877,334.441,321.864,336.134,329.818,335.462
	z M585.975,619.214c7.877-20.9,2.56-44.488-13.491-59.944l-129.44-135.284c-16.664-17.438-44.309-18.076-61.721-1.361
	c-0.459,0.451-0.91,0.893-1.361,1.361L250.522,559.27c-21.734,22.278-21.283,57.902,0.995,79.661
	c15.192,14.818,37.47,19.82,57.587,12.955l50.51-14.052c33.957-9.374,69.828-9.374,103.785,0l50.51,14.052
	C542.866,662.74,575.13,648.135,585.975,619.214z M594.362,323.927c-9.051,5.521-16.842,12.913-22.814,21.657
	c-6.227,9.153-10.88,19.207-13.789,29.9c-3.326,12.215-4.849,24.872-4.568,37.589c0.315,12.674,2.441,25.289,6.363,37.334
	c3.369,10.514,8.523,20.355,15.167,29.159c6.363,8.455,14.486,15.515,23.809,20.568c7.639,4.185,16.247,6.244,24.957,6.065
	c8.685-0.213,17.183-2.722,24.626-7.213c9.068-5.495,16.842-12.895,22.848-21.699c6.227-9.085,10.88-19.207,13.789-29.823
	c3.326-12.292,4.849-24.957,4.534-37.606c-0.281-12.674-2.441-25.289-6.329-37.394c-3.403-10.454-8.523-20.338-15.184-29.142
	c-6.38-8.464-14.503-15.456-23.826-20.568c-7.639-4.151-16.247-6.252-24.957-6.031C610.295,316.884,601.805,319.385,594.362,323.927
	z M516.096,330.587c9.552-5.282,17.846-12.564,24.336-21.308c6.882-9.331,12.309-19.556,16.119-30.461
	c4.568-13.134,7.528-26.812,8.719-40.685c1.216-13.857,0.714-27.841-1.565-41.596c-1.846-11.364-5.435-22.38-10.565-32.724
	c-4.9-9.782-11.798-18.348-20.287-25.238c-6.201-5.002-13.755-8.055-21.734-8.736c-7.962-0.749-15.949,0.961-22.907,4.823
	c-9.536,5.342-17.863,12.615-24.336,21.359c-6.882,9.263-12.309,19.556-16.119,30.401c-4.568,13.193-7.528,26.829-8.719,40.685
	c-1.216,13.857-0.681,27.832,1.548,41.587c1.88,11.432,5.453,22.448,10.599,32.732c4.883,9.765,11.781,18.408,20.27,25.289
	c6.201,5.002,13.789,8.072,21.733,8.744C501.142,336.134,509.104,334.441,516.096,330.587z"/>
</svg>
